<!DOCTYPE svg PUBLIC "-//W3C//DTD SVG 1.1//EN" "http://www.w3.org/Graphics/SVG/1.1/DTD/svg11.dtd">
<!-- Uploaded to: SVG Repo, www.svgrepo.com, Transformed by: SVG Repo Mixer Tools -->
<svg width="800px" height="800px" viewBox="-3.2 -3.2 38.40 38.40" fill="none" xmlns="http://www.w3.org/2000/svg">
<g id="SVGRepo_bgCarrier" stroke-width="0" transform="translate(0,0), scale(1)">
<path transform="translate(-3.2, -3.2), scale(1.2)" d="M16,29.48849620031459C20.504656805470812,29.518343114934567,25.690382472324213,29.481563292811522,28.308927017554296,25.81604174219521C30.85084982483722,22.25777772599916,28.487183904826452,17.63528109507334,27.513001237466202,13.37223259690262C26.53935888025065,9.111548509871696,26.75918725457318,3.7312941208618664,22.82647320228035,1.8246823323371775C18.889740601697575,-0.0838776811132218,14.729671523641334,3.282755564130461,10.842435281256673,5.2902065073228925C7.168039415914058,7.187742181928411,3.0337501076245976,8.821859535227777,1.6982827655155894,12.73572636865579C0.214251119377719,17.08499202003739,0.9101813986104537,22.159170949323872,3.893924521570595,25.654273037849265C6.785437246993248,29.04133812661477,11.546665844342964,29.458989338846987,16,29.48849620031459" fill="#bb3923" strokewidth="0"/>
</g>
<g id="SVGRepo_tracerCarrier" stroke-linecap="round" stroke-linejoin="round" stroke="#CCCCCC" stroke-width="0.256"/>
<g id="SVGRepo_iconCarrier"> <g clip-path="url(#clip0_901_1430)"> <path d="M4 25H31M31 25V19C31 16.791 29.187 14.312 27 14C20 13 16 11 15 7C14.063 3.249 11.866 1 8 1C4.134 1 1 4.134 1 8V31M31 25V31M24 30V28M21 30V28M14 30V28M11 30V28M8 30V28" stroke="#000000" stroke-width="2.304" stroke-linecap="round" stroke-linejoin="round"/> </g> <defs> <clipPath id="clip0_901_1430"> <rect width="32" height="32" fill="white"/> </clipPath> </defs> </g>
</svg>